#!OML:ASF H:\IndianDance\Patient Classification 1\Patient 1\Session 1\dancer.ASF
:FULLY-SPECIFIED
:DEGREES
3354
root 3.91849 15.3341 4.23454 -881.904 71.4501 -170.004
lowerback 4.9694 5.83498 1.279
upperback -6.01746 7.75031 -7.71954
thorax -7.91241 3.62193 -9.89287
lowerneck -19.2758 6.92096 5.79129
upperneck 32.4945 7.50474 6.45426
head 14.3976 5.34003 3.10355
rclavicle 9.40251e-014 -1.30403e-013
rhumerus -45.9727 58.2467 -96.3176
rradius 96.9247
rwrist -79.1716
rhand 17.7479 0.387749
rfingers 7.12502
rthumb 42.4316 -24.056
lclavicle 9.40251e-014 -1.30403e-013
lhumerus -22.3453 -47.3757 54.3859
lradius 46.6944
lwrist 56.3742
lhand 49.3973 375.943
lfingers 7.12502
lthumb 69.5522 13.0556
rfemur -26.6221 -18.5904 29.2513
rtibia 46.735
rfoot -19.6636 -4.81828
rtoes -1.6364
lfemur -37.8098 22.1527 -15.5069
ltibia 30.4356
lfoot -28.1502 27.0695
ltoes 7.50733
3355
root 3.9304 15.3283 4.25156 -882.68 71.0587 -170.79
lowerback 5.12657 5.76203 1.24343
upperback -5.97259 7.64586 -7.5824
thorax -7.99495 3.56866 -9.73124
lowerneck -19.2727 6.92644 5.78579
upperneck 32.4105 7.57602 6.21736
head 14.368 5.32836 3.01408
rclavicle 8.07066e-014 9.22361e-014
rhumerus -45.5923 58.1687 -95.6639
rradius 97.1012
rwrist -79.2071
rhand 18.0429 0.354472
rfingers 7.12502
rthumb 42.7077 -23.994
lclavicle 8.07066e-014 9.22361e-014
lhumerus -21.8662 -47.4738 53.6337
lradius 46.2204
lwrist 55.9878
lhand 49.722 375.981
lfingers 7.12502
lthumb 69.7686 12.4407
rfemur -26.589 -17.7845 28.6641
rtibia 46.9397
rfoot -19.786 -4.0766
rtoes -1.83647
lfemur -37.8823 21.9214 -15.7052
ltibia 30.4552
lfoot -27.89 26.9399
ltoes 6.9972
3356
root 3.94176 15.3195 4.26968 -883.201 70.6125 -171.323
lowerback 5.28585 5.67897 1.29649
upperback -5.93868 7.53575 -7.42186
thorax -8.08306 3.50686 -9.59415
lowerneck -19.2528 6.93843 5.78647
upperneck 32.3061 7.65977 5.96606
head 14.327 5.32021 2.91796
rclavicle -4.37326e-015 -3.65764e-014
rhumerus -45.2109 58.1089 -94.9987
rradius 97.2743
rwrist -79.2167
rhand 18.3664 0.317281
rfingers 7.12502
rthumb 43.0103 -23.925
lclavicle -4.37326e-015 -3.65764e-014
lhumerus -21.3873 -47.6078 52.8486
lradius 45.8042
lwrist 55.6341
lhand 50.0812 376.109
lfingers 7.12502
lthumb 70.0047 11.8292
rfemur -26.3971 -16.9813 28.2406
rtibia 46.8293
rfoot -20.1409 -3.57779
rtoes -1.66771
lfemur -38.1073 21.8568 -15.8919
ltibia 30.6467
lfoot -27.6361 26.7071
ltoes 6.33874
3357
root 3.95301 15.3076 4.2894 -883.465 70.1184 -171.616
lowerback 5.42875 5.58662 1.42104
upperback -5.92114 7.42068 -7.23947
thorax -8.17393 3.43818 -9.47165
lowerneck -19.2277 6.95408 5.7917
upperneck 32.1946 7.74896 5.71014
head 14.2825 5.31434 2.81989
rclavicle -1.16488e-013 -3.18055e-015
rhumerus -44.8329 58.0665 -94.3334
rradius 97.4381
rwrist -79.1874
rhand 18.7082 0.2579
rfingers 7.12502
rthumb 43.3299 -23.8704
lclavicle -1.16488e-013 -3.18055e-015
lhumerus -20.903 -47.7536 52.0232
lradius 45.438
lwrist 55.2733
lhand 50.468 376.33
lfingers 7.12502
lthumb 70.255 11.234
rfemur -26.0585 -16.2038 28.0133
rtibia 46.4137
rfoot -20.7202 -3.42333
rtoes -1.22465
lfemur -38.5006 21.9623 -16.072
ltibia 31.0064
lfoot -27.3875 26.3523
ltoes 5.5283
3358
root 3.96529 15.2927 4.31098 -883.547 69.5836 -171.754
lowerback 5.53594 5.48624 1.57798
upperback -5.92172 7.29975 -7.04165
thorax -8.26254 3.36506 -9.34633
lowerneck -19.2088 6.96801 5.7923
upperneck 32.0909 7.83416 5.46424
head 14.2427 5.3083 2.72726
rclavicle 5.15846e-014 0
rhumerus -44.4812 58.0313 -93.6924
rradius 97.5919
rwrist -79.1106
rhand 19.0763 0.176859
rfingers 7.12502
rthumb 43.6736 -23.8267
lclavicle 5.15846e-014 0
lhumerus -20.4073 -47.8885 51.1545
lradius 45.11
lwrist 54.8639
lhand 50.8604 376.603
lfingers 7.12502
lthumb 70.5044 10.6574
rfemur -25.598 -15.4875 27.9762
rtibia 45.746
rfoot -21.4755 -3.66905
rtoes -0.610254
lfemur -39.0597 22.2435 -16.2798
ltibia 31.5211
lfoot -27.1498 25.8749
ltoes 4.58711
3359
root 3.97839 15.2753 4.33482 -883.426 69.0076 -171.73
lowerback 5.59598 5.38157 1.76501
upperback -5.94629 7.17819 -6.8288
thorax -8.34811 3.29036 -9.21705
lowerneck -19.2037 6.97524 5.78628
upperneck 32 7.90742 5.23095
head 14.2111 5.2989 2.64071
rclavicle -6.20208e-014 7.95139e-014
rhumerus -44.1735 57.9974 -93.0816
rradius 97.7481
rwrist -79.002
rhand 19.4214 0.096377
rfingers 7.12502
rthumb 43.9957 -23.7881
lclavicle -6.20208e-014 7.95139e-014
lhumerus -19.8841 -47.9959 50.2381
lradius 44.8106
lwrist 54.3777
lhand 51.2519 376.916
lfingers 7.12502
lthumb 70.7488 10.1006
rfemur -25.088 -14.8297 28.1383
rtibia 44.9205
rfoot -22.342 -4.23075
rtoes 0.346078
lfemur -39.7943 22.6779 -16.5149
ltibia 32.1734
lfoot -26.9264 25.3197
ltoes 3.58332
3360
root 3.9929 15.2557 4.36041 -883.189 68.3914 -171.631
lowerback 5.60497 5.27496 1.95674
upperback -5.9904 7.05685 -6.60698
thorax -8.42559 3.21648 -9.07554
lowerneck -19.2094 6.97267 5.77149
upperneck 31.9222 7.96535 5.01096
head 14.1868 5.28465 2.55999
rclavicle -4.00551e-014 1.90833e-014
rhumerus -43.9318 57.9504 -92.5153
rradius 97.9094
rwrist -78.871
rhand 19.7343 0.0272957
rfingers 7.12502
rthumb 44.2875 -23.7475
lclavicle -4.00551e-014 1.90833e-014
lhumerus -19.3219 -48.0532 49.281
lradius 44.5275
lwrist 53.7916
lhand 51.6448 377.244
lfingers 7.12502
lthumb 70.9893 9.53223
rfemur -24.5999 -14.262 28.4526
rtibia 44.0559
rfoot -23.2356 -5.08067
rtoes 1.39753
lfemur -40.6758 23.2291 -16.8017
ltibia 32.941
lfoot -26.7211 24.7316
ltoes 2.56085
